<svg xmlns="http://www.w3.org/2000/svg" fill="none" viewBox="0 0 521 103"><path fill="#111" d="M345.752 27.557a24.66 24.66 0 0 0-13.728 4.066 24.64 24.64 0 0 0-9.146 11.017 24.64 24.64 0 0 0 5.23 26.896 24.63 24.63 0 0 0 26.858 5.413 24.65 24.65 0 0 0 11.081-9.066 24.64 24.64 0 0 0 4.159-13.7 24.5 24.5 0 0 0-1.835-9.396 24.5 24.5 0 0 0-5.291-7.981 24.5 24.5 0 0 0-7.946-5.349 24.5 24.5 0 0 0-9.382-1.9m0 37.066c-6.447 0-11.67-5.572-11.67-12.44 0-6.871 5.223-12.438 11.67-12.438 6.444 0 11.678 5.567 11.678 12.439 0 6.867-5.227 12.41-11.678 12.41zm53.316-37.066a24.64 24.64 0 0 0-13.725 4.066 24.64 24.64 0 0 0-10.618 25.259 24.66 24.66 0 0 0 6.703 12.654 24.6 24.6 0 0 0 12.604 6.786 24.6 24.6 0 0 0 14.253-1.373 24.62 24.62 0 0 0 15.241-22.765 24.6 24.6 0 0 0-1.835-9.397 24.53 24.53 0 0 0-22.623-15.23m0 37.066c-6.444 0-11.67-5.572-11.67-12.44 0-6.871 5.226-12.438 11.67-12.438 6.448 0 11.678 5.567 11.678 12.439 0 6.867-5.237 12.41-11.678 12.41zM198.865 30.466h-12.781v43.92h12.781zm80.683 0h-12.78v43.92h12.78zM306.27 58.86V40.245h9.885v-9.778h-9.885V19.41h-12.134l-.043 11.07h-6.735v9.778h6.135v19.889c0 9.346 5.647 15.956 14.311 15.956a30.6 30.6 0 0 0 8.775-1.412V64.314c-1.469.423-2.989.66-4.519.704-3.57.014-5.79-2.472-5.79-6.157m-74.879-31.304a24.63 24.63 0 0 0-24.626 24.627 24.627 24.627 0 0 0 24.626 24.626 24.2 24.2 0 0 0 11.76-3.039v5.446a10.99 10.99 0 0 1-3.157 7.697 11 11 0 0 1-7.651 3.273h-.388a10.96 10.96 0 0 1-7.568-3.305 10.96 10.96 0 0 1-3.122-7.644v-.41h-13.171a23.9 23.9 0 0 0 1.792 9.193 24 24 0 0 0 5.176 7.805 24 24 0 0 0 7.77 5.23 24 24 0 0 0 9.181 1.861 24.005 24.005 0 0 0 23.876-23.298h.043V30.783a12.55 12.55 0 0 0-8.212 3.056 24.26 24.26 0 0 0-16.329-6.282m0 37.066c-6.447 0-11.677-5.572-11.677-12.44 0-6.871 5.251-12.438 11.677-12.438 6.423 0 11.678 5.567 11.678 12.439 0 6.867-5.212 12.41-11.678 12.41zm-38.916-54.441c-4.343 0-7.407 3-7.407 7.202 0 4.2 3.064 7.292 7.407 7.292s7.414-3 7.414-7.292-3.064-7.202-7.414-7.202m80.683 0c-4.343 0-7.414 3-7.414 7.202 0 4.2 3.071 7.292 7.414 7.292 4.342 0 7.413-3 7.413-7.292s-3.071-7.202-7.413-7.202M434.143 62.27c-4.343 0-7.414 3-7.414 7.202 0 4.199 3.071 7.291 7.414 7.291s7.414-2.999 7.414-7.291c0-4.293-3.071-7.202-7.414-7.202"/><path fill="#111" fill-rule="evenodd" d="M496.512 53.358q.037-.674.036-1.354c0-13.596-11.02-24.612-24.612-24.612-13.596 0-24.616 11.016-24.616 24.612 0 13.592 11.02 24.612 24.616 24.612 13.139 0 23.872-10.294 24.576-23.258m-12.73-1.354c0 6.871-5.305 12.439-11.846 12.439-6.545 0-11.847-5.568-11.847-12.439 0-6.868 5.302-12.439 11.847-12.439 6.541 0 11.846 5.571 11.846 12.439" clip-rule="evenodd"/><path fill="#111" d="M483.973 43.182v25.56l2.884 7.246h9.695V30.607c-6.947 0-12.579 5.628-12.579 12.575m35.347-12.726h-12.777v45.52h12.777zm-6.387-20.284c-4.342 0-7.413 3-7.413 7.202 0 4.199 3.071 7.291 7.413 7.291s7.414-2.999 7.414-7.291c0-4.293-3.071-7.202-7.414-7.202m-336.801.531h-12.788V30.36c-3.56-1.947-7.457-3.018-11.721-3.018-13.681.17-24.702 11.154-24.702 24.598 0 13.449 11.021 24.43 24.509 24.43 13.491 0 24.511-10.79 24.511-24.257v-41.41zM151.43 64.36c-6.563 0-11.721-5.481-11.721-12.4 0-6.914 5.327-12.395 11.721-12.395 6.397 0 11.724 5.481 11.724 12.396.169 6.897-5.158 12.4-11.724 12.4"/><path fill="#FF6000" d="M45.365 45.302h.295v45.056H.605v-.296c0-24.704 20.057-44.76 44.76-44.76"/><path fill="#004CF4" d="M45.681.225H.625v45.056h45.056z"/><path fill="#fff" d="M90.716 45.006v.295H45.66V.245h.296c24.704 0 44.76 20.057 44.76 44.76"/><path fill="#FFCCF7" d="M45.956 90.358h-.296V45.302h45.056v.295c0 24.704-20.056 44.76-44.76 44.76"/></svg>
