<svg xmlns="http://www.w3.org/2000/svg" viewBox="0 0 1280 580"><path fill="#490B3D" d="M295.172 108.797c2.69 1.77 4.74 3.758 6.828 6.203l2.125 2.25c8.394 12.312 4.716 29.86 4.077 43.964-.729 16.228-1.403 32.46-1.875 48.698-.05 1.71-.106 3.42-.165 5.13-.08 2.37-.147 4.742-.209 7.114l-.078 2.065c-.128 6.012 1.233 11.104 3.125 16.779 5.601 1.189 5.601 1.189 11 0 6.817-11.623 9.565-27.177 13.5-40a3677.383 3677.383 0 0 1 5.748-18.593c.488-1.561.974-3.123 1.458-4.685.64-2.056 1.293-4.108 1.95-6.16l1.088-3.433c1.975-4.92 4.665-8.995 8.756-12.379.567-.48 1.134-.96 1.719-1.453 6.515-4.743 14.06-3.903 21.781-3.297 6.28 1.565 10.502 5.682 14 11 3.952 7.038 3.954 14.74 2.22 22.485-1.122 3.95-2.337 7.857-3.595 11.765-.453 1.448-.905 2.897-1.356 4.346-2.698 8.63-5.5 17.227-8.297 25.826A2916.365 2916.365 0 0 0 373 245l-.92 2.882c-5.119 16.335-6.593 31.906-.08 48.118l.73 1.827a970.11 970.11 0 0 0 3.117 7.711C380.272 316.425 382 326.22 382 338h-55l-5-15c-5.018-12.366-15.584-22.268-27.625-27.813-14.138-5.386-28.367-5.123-42.313.625C238.018 302.877 228.339 313.055 223 328c-4.215 15.137-1.987 29.338 5.238 43.152 2.742 4.432 6.096 8.164 9.762 11.848a190.772 190.772 0 0 1-13.084 18.937c-4.424 5.666-8.582 11.51-12.727 17.382-2.052 2.901-4.122 5.79-6.189 8.681-13.913-4.735-23.97-22.876-30.305-35.46C170 380.65 170 380.65 170 377l-3.032-.37c-3.92-.563-7.667-1.571-11.456-2.704l-2.112-.62c-2.239-.658-4.476-1.325-6.713-1.993l-2.306-.686A2646.072 2646.072 0 0 1 129 366l-3.217-.978a583.127 583.127 0 0 1-7.408-2.334l-1.997-.622c-9.467-3.147-16.531-8.746-21.702-17.242-4.003-8.357-4.384-18.495-1.57-27.273C97.507 308.143 103.361 301.897 113 298c11.799-3.933 24.218-.255 35.536 3.51 7.455 2.437 13.64 3.765 21.214 1.24 6.924-3.728 9.72-7.398 12.25-14.75 4.747-18.428-1.818-39.413-5.59-57.392-2.213-10.56-4.287-21.143-6.317-31.74l-.698-3.641-.684-3.587a499.957 499.957 0 0 0-1.534-7.56c-5.193-24.835-5.193-24.835.323-34.83 5.087-6.921 11.93-11.857 20.5-13.25 8.999-.475 16.022 1.185 23 7 8.306 8.377 9.68 19.634 11.75 30.813.255 1.343.51 2.686.767 4.03 1.14 5.983 2.263 11.97 3.377 17.958.753 4.05 1.517 8.099 2.285 12.147.294 1.56.584 3.12.87 4.68 2.09 12.64 2.09 12.64 6.951 24.372 2.747 2.261 2.747 2.261 5.5 1.875 3.079-1.078 3.769-2.155 5.5-4.875 3.072-9.009 2.452-19.454 2.675-28.865.072-3.003.156-6.006.243-9.01.244-8.53.467-17.061.684-25.593.133-5.239.28-10.477.435-15.716.055-1.984.106-3.967.151-5.951.615-26.91.615-26.91 10.37-36.76 9.024-7.781 22.005-8.887 32.614-3.308Z"/><path d="M560 291v2l1.785.754c8.784 4.942 13.187 17.15 15.832 26.324 1.97 8.141 1.833 16.303 1.774 24.63-.016 2.721 0 5.44.02 8.161.024 19.164-3.407 34.687-17.106 48.916-9.27 8.91-18.824 14.41-31.992 14.715-11.885-.464-20.491-4.058-29.188-12.188L499 402a538.423 538.423 0 0 0-3-3l-.004 2.51c-.018 7.813-.06 15.625-.128 23.438-.034 4.017-.06 8.033-.064 12.05-.004 3.877-.032 7.754-.077 11.631a373.754 373.754 0 0 0-.013 4.434c.005 2.074-.021 4.145-.055 6.219l-.02 3.573c-.828 4.074-2.48 5.527-5.639 8.145-6.278 3.793-12.805 3.807-20 3-4.923-1.493-8.317-3.541-11-8-.383-3.242-.383-3.242-.394-7.167l-.019-2.19c-.017-2.422-.012-4.844-.007-7.266a2765.648 2765.648 0 0 1-.049-19.36c0-3.936-.008-7.872-.017-11.809-.019-9.286-.022-18.572-.015-27.858.007-9.583-.016-19.165-.053-28.748-.031-8.225-.042-16.45-.038-24.675.002-4.914-.004-9.827-.028-14.74-.023-4.621-.02-9.241 0-13.862a487.69 487.69 0 0 0-.016-5.087 416.7 416.7 0 0 1 .015-6.944l-.003-3.926c.786-4.243 2.318-5.687 5.624-8.368 5.967-3.056 14.083-3.212 20.45-1.242 3.669 1.723 6.774 3.48 8.55 7.242.516 2.68.773 5.27 1 8l1.215-1.54c7.932-9.604 16.192-13.55 28.16-16.21 13.691-.944 25.78 2.193 36.625 10.75Zm-59.527 30.102c-6.407 8.259-5.684 18.35-5.723 28.273l-.063 3.945c-.042 10.354 1.322 16.198 8.426 23.883 4.225 4.024 8.76 6.453 14.723 6.879 8.194-.31 13.383-3.52 19.156-9.144 5.727-8.379 6.648-17.012 6.508-26.938.015-1.098.03-2.197.047-3.328-.04-8.593-1.49-16.202-6.406-23.39-5.751-5.419-10.66-8.301-18.641-8.657-7.63.328-12.844 2.88-18.027 8.477ZM1169.188 295.188c9.165 8.7 17.995 20.734 18.96 33.807l.029 2.124.039 2.43.022 2.607.025 2.722c.014 1.903.024 3.806.032 5.709.012 1.928.032 3.856.062 5.783.308 20.045-3.615 34.148-17.642 49.083-4.178 3.92-8.717 6.787-13.715 9.547l-2.05 1.207c-12.968 7.168-29.244 7.878-43.388 4.168-17.374-5.718-29.484-16.424-38.984-31.762-4.577-10.48-5.06-21.073-4.97-32.315.017-2.361 0-4.72-.018-7.081-.026-18.276 4.621-32.878 17.402-46.31 9.073-8.641 19.754-13.666 32.008-15.907l3.875-.75c17.482-1.698 34.987 3.58 48.313 14.938Zm-59.645 27.519c-3.708 5.51-4.924 10.08-4.941 16.695l-.01 2.065c-.001 1.431.004 2.862.017 4.293.016 2.169 0 4.335-.02 6.504-.013 8.785.503 15.535 5.661 22.986 5.327 5.327 11.256 8.102 18.75 8.75 6.464-.366 11.432-3.579 16-8 6.822-8.359 7.345-17.474 7.313-27.875l.048-3.105c.006-8.41-1.084-17.137-6.361-24.02h-2v-2c-1.685-1.332-1.685-1.332-3.813-2.563l-2.144-1.316c-10.938-6.002-21.083-.958-28.5 7.586ZM1036.613 295.77c11.197 10.463 17.938 23.608 18.532 38.987.013 1.338.02 2.675.023 4.013l.01 2.185c.005 1.516.007 3.033.007 4.55.002 2.29.02 4.581.04 6.872.068 16.708-3.302 32.067-15.225 44.623-13.35 12.813-29.236 19.549-47.659 19.492-17.23-.545-31.374-8.364-43.341-20.492-9.467-10.498-14.286-21.752-14.371-35.816-.01-.934-.018-1.867-.027-2.83-.015-1.97-.024-3.941-.028-5.912a683.758 683.758 0 0 0-.111-8.913c-.157-18.356 3.95-31.6 16.787-45.216 23.714-22.75 60.518-22.333 85.363-1.543ZM979 319v2h-2a446.022 446.022 0 0 0-2.438 4.188l-1.37 2.355c-3.07 6.332-2.376 13.398-2.38 20.27l-.037 3.486c-.017 10.234.861 18.102 8.225 25.701 4.916 4.12 9.412 7 16 7 7.068-1.122 13.157-3.546 17.8-9.188 5.484-7.956 5.472-14.77 5.55-24.236.017-1.457.044-2.913.082-4.37.272-10.384-.576-18.367-7.46-26.644-6.02-4.924-10.886-7.005-18.73-6.82-5.007.576-9.53 2.843-13.242 6.258ZM694.688 294.75c1.949 1.734 1.949 1.734 3.312 3.25v2h2c9.22 11.885 11.769 24.19 11 39-.716 5.432-2.45 9.778-6 14-8.757 6.353-19.4 5.14-29.785 5.098l-3.93-.005c-3.418-.003-6.835-.013-10.253-.024-3.5-.01-7-.015-10.499-.02-6.844-.01-13.689-.028-20.533-.049.124 1.577.257 3.154.395 4.73l.221 2.661c.876 5.956 3.695 10.87 8.548 14.515 9.495 5.657 20.075 7.661 30.836 5.031 5.692-1.64 11.013-4.04 16.342-6.6 4.065-1.892 7.176-2.879 11.658-2.337 5.017 2.062 8.242 5.934 10.418 10.805 1.168 4.407.618 9.124-1.418 13.195h-2l-.742 1.816c-4.849 8.417-18.5 10.823-27.258 13.184-14.622 3.324-30.91 1.762-45-3l-2.809-.91c-8.133-2.931-16.433-7.556-22.191-14.09v-2h-2c-6.55-8.34-12.057-19.338-12.161-30.15l-.03-2.45-.012-2.627-.017-2.735c-.01-1.912-.016-3.823-.02-5.735-.01-2.897-.04-5.793-.072-8.69-.007-1.863-.012-3.726-.016-5.59l-.038-2.59c.06-16.207 8.016-28.083 19.116-39.183 4.803-4.433 10.415-7.38 16.25-10.25l1.957-.973c20.804-9.02 47.763-3.57 64.73 10.723Zm-62.41 23.348c-2.552 3.8-2.385 7.142-2.34 11.59l.027 3.574L630 336c5.747.074 11.495.129 17.242.165 1.955.015 3.91.035 5.864.061 2.812.037 5.624.054 8.437.067l2.64.047c4.746.001 7.991-.187 11.817-3.34 1.406-4.427.235-9.113-1.625-13.25-3.255-5.725-7.993-9.196-14.18-11.242-11.197-2.59-20.722.768-27.918 9.59ZM914.684 290.363c2.986 2.869 4.24 4.68 4.566 8.825-.421 6.424-2.95 11.096-7.25 15.812-4.93 2.465-11.2 1.599-16.254-.082a193.085 193.085 0 0 1-6.117-2.727c-4.757-2.155-8.702-2.352-13.942-2.378l-3.863-.043c-3.99.24-7.05.995-10.824 2.23v2h-2a126.23 126.23 0 0 0-.75 4.25l-.422 2.39c-.028 2.476-.028 2.476 1.711 4.473 2.994 2.295 6.066 3.58 9.586 4.825l2.104.77c5.313 1.899 10.695 3.411 16.146 4.854 12.378 3.326 23.347 8.205 30.55 19.442 2.748 5.24 4.85 10.012 5.075 15.996l.148 2c.548 11.79-3.303 21.482-11.082 30.156-11.76 11.566-28.071 13.255-43.753 13.21-15.667-.26-32.94-3.701-44.313-15.366-3.286-4.558-3.318-8.22-2.582-13.598 1.127-4.653 3.967-8.348 7.582-11.402 4.861-1.404 8.952-.518 13.418 1.688a282.515 282.515 0 0 1 5.407 3.237c9.473 5.761 18.116 7.088 29.175 6.075 2.93-.736 5.248-1.702 8-3l3-1c.658-3.358 1.12-6.573 1-10-4.088-5.65-9.866-8.15-16.41-10.05l-3.752-1.12c-2.571-.756-5.145-1.503-7.719-2.25-12.888-3.856-25.988-8.442-33.303-20.537-4.856-10.667-3.827-23.35-.07-34.137 4.266-9.886 12.228-16.282 21.879-20.719 18.348-7.028 49.108-6.74 65.059 6.176ZM811 283c4.327 4.22 5.804 7.4 6.25 13.313-.381 5.623-2.061 9.32-5.75 13.562-3.615 3.073-6.419 3.236-11.047 3.414-10.657.427-17.406 1.839-25.34 9.266-9.044 10.465-10.394 22.082-10.351 35.297-.006 1.345-.014 2.69-.023 4.037-.037 5.685-.056 11.37-.044 17.056.005 3.49-.013 6.98-.046 10.47a423.61 423.61 0 0 0 .019 5.898c-.11 9.906-.11 9.906-3.032 12.925-5.536 3.7-9.817 5.322-16.511 5.262l-2.137-.01c-5.051-.162-8.538-1.051-12.605-4.006-2.912-3.126-3.633-6.019-3.644-10.221l-.021-2.876.007-3.135-.015-3.317c-.014-3.623-.013-7.246-.01-10.869l-.014-7.547c-.007-5.275-.007-10.55-.002-15.825a4073.79 4073.79 0 0 0-.027-18.278c-.02-5.867-.023-11.734-.02-17.6 0-2.495-.005-4.989-.015-7.482a1523.3 1523.3 0 0 1 .006-10.457l-.023-3.128c.064-8.767.064-8.767 3.395-12.749 5.92-4.304 12.919-5.007 20-4 4.463 1.257 7.896 2.759 11 6.25 1.315 3.615 1.675 6.916 2 10.75l1.285-1.54C774.537 285.43 795.204 271.443 811 283Z"/><path fill="#F8CA10" d="M246 390c5.664 1.837 5.664 1.837 8.11 3.023 6.494 2.917 12.496 3.379 19.515 3.414l2.674.03c5.343-.069 9.73-.862 14.706-2.826C293 393 293 393 297 393l1.398 2.465a1636.324 1636.324 0 0 0 11.54 19.973l1.256 2.138a879.202 879.202 0 0 0 6.443 10.768l1.268 2.088c.797 1.31 1.598 2.618 2.403 3.923C324 438.78 324 438.78 324 441c-24.65 13.582-54.598 15.404-81.438 7.875-9.72-2.877-19.122-7.249-27.562-12.875.508-4.645 2.339-7.096 5.25-10.688.91-1.143 1.818-2.29 2.723-3.437l1.477-1.871c2.835-3.665 5.533-7.43 8.238-11.192l1.675-2.328c3.923-5.464 7.813-10.95 11.637-16.484Z"/><path fill="#BD1E51" d="M327 349h55c0 28.824-12.58 53.513-32.563 73.813C338.01 434 338.01 434 333 434c-1.612-2.347-3-4.641-4.375-7.125l-2.656-4.652-1.438-2.539c-2.75-4.82-5.582-9.594-8.406-14.372l-1.658-2.822-1.584-2.69-1.491-2.532c-1.204-1.962-2.48-3.806-3.837-5.663C306 389 306 389 305.985 386.887c1.368-2.543 3.13-4.133 5.265-6.075 9.008-8.736 12.757-19.841 15.75-31.812Z"/></svg>
