<svg xmlns="http://www.w3.org/2000/svg" viewBox="0 0 3015 852"><path fill="#F4690B" d="M1704 343a131.112 131.112 0 0 1 10 9l1.258-1.031c20.095-15.807 41.467-20.556 66.742-18.969 14.69 1.8 28.053 8.261 37.316 19.914 12.123 16.38 14.858 33.084 14.798 52.95v3.816c0 3.427-.006 6.854-.013 10.281-.006 3.592-.006 7.183-.008 10.775-.003 6.789-.01 13.578-.021 20.367-.013 9.182-.019 18.364-.024 27.547-.01 14.45-.03 28.9-.048 43.35h-65l-.148-23.457c-.036-4.917-.072-9.835-.11-14.752-.06-7.797-.118-15.594-.164-23.391-.037-6.29-.083-12.58-.136-18.869-.019-2.394-.034-4.788-.045-7.182-.017-3.365-.046-6.73-.078-10.094l-.007-2.97c-.105-8.804-.258-18.39-6.312-25.285-5.76-4.44-9.782-5.473-17-5-5.98 1.303-10.101 3.099-14 8-2.872 4.507-5.117 8.188-5.158 13.568l-.03 2.915-.017 3.209-.03 3.37c-.032 3.69-.057 7.38-.081 11.07l-.063 7.66c-.05 6.042-.095 12.084-.138 18.126-.055 7.552-.115 15.104-.176 22.656-.109 13.475-.208 26.95-.307 40.426h-65l-.078-24.805c-.029-5.856-.06-11.713-.094-17.569-.044-7.58-.083-15.159-.099-22.738-.014-6.646-.05-13.292-.097-19.938a1377.55 1377.55 0 0 1-.024-7.595c-.002-3.555-.03-7.109-.062-10.663l.015-3.15c-.11-7.8-1.404-15.219-6.936-21.042-5.992-3.424-11.944-4.626-18.703-3-6.067 2.038-10.91 5.248-14.06 10.96-2.515 5.246-2.435 10.275-2.408 16.005l-.031 3.402c-.03 3.69-.031 7.38-.032 11.07a5796.92 5796.92 0 0 1-.05 7.701c-.04 6.053-.061 12.105-.074 18.157-.018 7.572-.062 15.145-.107 22.717-.079 13.496-.118 26.992-.16 40.488h-65V336h65l1 12 3.188-3.125c21.83-18.987 59.675-17.44 82.812-1.875ZM2398 254h66v267h-66l-1-12-4.375 3.188c-17.104 11.907-35.54 14.807-55.98 11.562-19.513-4.015-35.79-13.826-47.457-30.063-17.683-27.068-22.834-60.81-16.227-92.449 5.374-22.923 16.213-44.592 36.352-57.988 17.886-10.732 39.51-14.574 60.062-10.25 6.255 1.91 12.159 4.876 17.96 7.867l1.706.879c2.841 1.819 5.367 4.094 7.959 6.254l1-94Zm-52.754 144.04c-8.52 12.085-10.963 25.669-8.75 40.222 2.122 9.36 6.353 19.56 14.574 25.144 9.183 5.354 18.37 7.183 28.867 4.977 8.157-2.56 13.369-7.342 18.063-14.383.33-2.305.33-2.305.322-4.895l.058-3.015.026-3.258.035-3.36c.019-2.35.032-4.699.04-7.048.019-3.58.08-7.159.144-10.738.013-2.285.024-4.57.031-6.854l.075-3.227c-.043-7.232-1.575-11.464-6.731-16.605-14.036-11.238-34.57-11.127-46.754 3.04ZM422.938 286.875A258.257 258.257 0 0 1 430 291c1.245.724 2.49 1.445 3.738 2.164a756.989 756.989 0 0 1 8.344 4.918c5.752 3.427 11.554 6.765 17.356 10.106l3.352 1.931a39916.8 39916.8 0 0 0 6.815 3.925c5.467 3.15 10.93 6.303 16.395 9.456l6.5 3.75 65 37.5a8395055393.294 8395055393.294 0 0 1 9.737 5.618 8862.907 8862.907 0 0 0 16.474 9.487 4190.883 4190.883 0 0 1 16.244 9.386c2.94 1.698 5.89 3.376 8.842 5.052C629.2 406.012 629.2 406.012 633 417c1.915 8.325.906 16.336-3.5 23.688-6.124 8.215-15.961 12.893-24.732 17.82a1507.365 1507.365 0 0 0-5.47 3.09 6059.037 6059.037 0 0 1-5.697 3.227 2317.227 2317.227 0 0 0-18.726 10.738l-6.445 3.722-3.212 1.856c-5.405 3.122-10.811 6.24-16.218 9.359l-6.5 3.75-68.253 39.377-6.466 3.73a49753.616 49753.616 0 0 1-26.804 15.457l-3.032 1.749-2.96 1.703a557.438 557.438 0 0 0-6.197 3.656l-3.17 1.89-2.833 1.708c-7.344 3.904-15.182 4.944-23.281 2.828-8.394-3.39-14.071-8.552-17.647-16.812-1.406-4.16-1.383-8.107-1.311-12.462l-.002-2.871c.003-3.1.034-6.2.065-9.3.008-2.163.014-4.324.018-6.486.015-5.667.054-11.334.098-17 .049-6.812.067-13.624.09-20.435.039-10.328.116-20.654.185-30.982h54l1 41c20.045-11.422 20.045-11.422 40-23 9.222-5.4 18.487-10.72 27.772-16.01a2565.127 2565.127 0 0 0 28.328-16.386l2.755-1.616 2.607-1.529c3.247-1.867 6.54-3.641 9.852-5.392 1.852-.969 1.852-.969 2.686-3.067l-2.328-.613c-5.162-1.95-9.693-4.753-14.422-7.575l-6.492-3.828-3.382-1.998c-5.397-3.175-10.824-6.3-16.251-9.423l-6.555-3.778-3.288-1.894c-5.429-3.128-10.855-6.26-16.282-9.391a566343.472 566343.472 0 0 0-18.362-10.594 141639.852 141639.852 0 0 0-12.1-6.984l-3.081-1.777-2.688-1.552c-3.253-1.871-6.511-3.731-9.769-5.593v44h-54c-.16-24.636-.16-24.636-.195-35.156-.024-7.172-.052-14.344-.107-21.516-.043-5.784-.067-11.567-.078-17.35-.007-2.205-.021-4.409-.043-6.613a925.88 925.88 0 0 1-.031-9.277l-.044-2.747c.052-8.064 2.835-14.521 8.498-20.341 10.29-7.368 22.424-8.815 33.938-3.125ZM2671 336h68a27296.62 27296.62 0 0 1 24.875 73.063l.688 2.031c2.813 8.302 5.626 16.604 8.437 24.906 1.62-3.053 2.785-6.112 3.873-9.39l1.096-3.291 1.18-3.569 1.24-3.728c1.104-3.321 2.205-6.644 3.305-9.966 1.133-3.42 2.27-6.84 3.407-10.26a32770.18 32770.18 0 0 0 5.4-16.267c3.239-9.763 6.494-19.521 9.749-29.279L2807 336h65c-2.05 6.835-4.197 13.345-6.852 19.93l-1.124 2.822c-.798 2-1.597 4-2.398 5.998-2.154 5.38-4.294 10.767-6.435 16.152l-1.324 3.33c-4.252 10.71-8.415 21.452-12.555 32.205l-4.195 10.891-1.036 2.69a6778.867 6778.867 0 0 1-11.144 28.67l-.995 2.548-4.958 12.687c-2.998 7.67-5.99 15.34-8.983 23.011L2805 509.75l-2 5.125-4 10.25a1896359882.733 1896359882.733 0 0 1-17.282 44.28 173772.041 173772.041 0 0 0-9.292 23.798l-.903 2.31c-1.364 3.496-2.72 6.995-4.053 10.505l-1.365 3.591-1.17 3.109C2764 615 2764 615 2763 616c-1.994.094-3.992.117-5.989.114h-3.882l-4.227-.016-4.3-.005c-3.78-.003-7.56-.013-11.339-.024-3.854-.01-7.708-.015-11.562-.02-7.567-.01-15.134-.028-22.701-.049.586-3.291 1.38-6.245 2.648-9.336l1.03-2.527 1.127-2.727 1.187-2.896c.849-2.069 1.7-4.137 2.551-6.204 1.345-3.28 2.672-6.565 3.995-9.853 4.505-11.146 9.18-22.138 14.368-32.984 11.143-20.95 11.143-20.95 11.828-43.61-1.637-3.773-3.517-7.36-5.569-10.925-4.79-8.473-7.84-17.743-11.224-26.84-2.127-5.68-4.323-11.332-6.511-16.989-5.849-15.17-11.641-30.362-17.43-45.555a6501.767 6501.767 0 0 0-14.102-36.73l-1.22-3.145a7414.523 7414.523 0 0 0-5.702-14.658l-1.996-5.134-.924-2.356C2671 338.227 2671 338.227 2671 336ZM2225.777 344.382c13.151 11.332 19.91 25.565 22.223 42.618.26 4.52.254 9.024.227 13.55v3.965c.002 3.553-.01 7.106-.024 10.659-.013 3.726-.014 7.452-.016 11.178-.006 7.04-.023 14.081-.043 21.121-.027 9.525-.037 19.05-.049 28.575-.019 14.984-.059 29.968-.095 44.952h-64l-.113-23.203c-.03-4.867-.062-9.735-.096-14.602-.054-7.715-.105-15.431-.137-23.147a4832.16 4832.16 0 0 0-.117-18.674c-.017-2.368-.028-4.736-.035-7.104-.01-3.332-.037-6.662-.07-9.994l.005-2.93c-.124-9.129-1.03-19.277-7.796-26.01-6.708-5.462-14.316-5.158-22.641-4.336-7.183 1.677-11.934 5.951-16 12-1.577 3.424-2.253 6.13-2.278 9.891l-.034 2.902-.007 3.148-.03 3.342c-.031 3.641-.048 7.283-.065 10.924-.019 2.526-.038 5.053-.059 7.58-.046 5.966-.083 11.934-.116 17.901-.05 8.656-.116 17.311-.18 25.967-.088 12.115-.158 24.23-.231 36.345h-65V336h65l1 13 4.188-3.625c23.273-18.52 62.774-19.515 86.59-.993ZM2635.988 347.238c2.46 2.161 4.75 4.396 7.012 6.762l1.914 1.855c15.181 15.683 17.27 38.546 17.2 59.226v3.492c0 3.771-.008 7.543-.016 11.314l-.005 7.89c-.003 6.19-.01 12.38-.021 18.57-.012 7.748-.018 15.497-.023 23.245-.01 13.803-.03 27.605-.049 41.408h-63l-1-8-2.559 1.836c-16.414 10.91-40.914 11.398-59.671 7.643-15.936-3.618-30.131-12.164-39.77-25.479-8.24-14.537-10.204-30.491-7.313-46.902 4.604-16.132 14.92-27.853 29.313-36.098 20.916-10.714 47.296-12.167 69.563-5.063 3.799 1.302 7.046 2.91 10.437 5.063.653-13.323.653-13.323-5.313-24.813-6.25-5.088-11.392-5.7-19.257-5.558-4.65.503-7.477 1.939-11.43 4.371h-2l-.875 1.75L2556 396h-62c3.51-16.378 3.51-16.378 6.563-22.125l1.048-2.014c10.072-18.608 27.165-30.884 47.139-37.173 28.282-7.421 63.233-5.43 87.238 12.55ZM2551 453c-3.386 3.838-3.516 7.637-3.348 12.566.722 5.049 3.338 7.644 7.223 10.684 5.966 3.34 11.165 4.14 17.875 4.125l2.413-.005c8.516-.177 15.59-2.318 21.837-8.37 3.003-4.505 2.935-8.73 2-14-3.23-5.858-7.737-9.028-14-11-11.853-2.852-24.346-1.815-34 6ZM1139.477 330.879c22.907-.588 46.422 4.415 64.058 19.746 13.731 13.23 20.923 31.058 21.554 50.064.034 3.17.035 6.34.025 9.51v3.64c0 3.27-.006 6.54-.013 9.81-.006 3.425-.006 6.851-.008 10.277-.003 6.478-.01 12.955-.021 19.432-.012 8.103-.018 16.207-.023 24.31-.01 14.444-.03 28.888-.049 43.332h-63v-8l-2.098 1.172c-21.539 11.465-46.266 12.745-69.441 5.762-7.343-2.606-13.373-6.102-19.461-10.934l-2.148-1.617c-10.627-8.51-16.083-21.09-17.852-34.383-1.093-17.327 1.61-32.119 13.29-45.652 11.347-11.979 25.465-18.687 41.71-21.348l2.02-.336c18.554-2.547 37.297-.275 53.98 8.336-.348-14.75-.348-14.75-8-27-6.43-4.054-13.6-3.768-21-3-5.472 1.563-8.829 4.243-12 9l-2 3c-2.556.36-2.556.36-5.827.34h-3.7l-4.012-.047a1784.306 1784.306 0 0 1-14.876-.087c-3.666-.03-7.333-.044-11-.06-7.195-.032-14.39-.083-21.585-.146.145-1.597.294-3.193.445-4.79l.25-2.694c1.816-15.013 13.065-29.081 24.305-38.516 17.05-12.747 35.404-18.09 56.477-19.121Zm-24.54 121.621c-3.702 4.777-4.67 8.385-3.937 14.5 1.817 5.452 5.052 8.348 10 11 5.004 2.093 9.475 2.351 14.813 2.313l2.425-.018c8.868-.182 14.809-1.851 21.45-7.893 3.315-3.542 2.7-7.888 2.656-12.484-.133-3.127-.133-3.127-2.469-5.918l-2.875-2-2.875-2.188c-11.741-6.81-28.624-5.935-39.188 2.688ZM1950.25 331.688c1.184.005 2.369.01 3.59.017 25.235.348 47.336 8.715 65.414 26.428 20.124 21.011 26.444 47.42 25.93 75.855-.682 22.574-7.864 44.152-23.184 61.012l-2.457 2.738c-17.515 18.541-40.335 26.34-65.55 27.387-25.833.508-50.501-6.82-69.587-24.758L1882 498l-2.344-2.305c-18.307-19.122-24.19-44.69-23.94-70.432.496-22.245 6.422-44.188 21.284-61.263l2.02-2.453c18.073-21.233 43.976-29.996 71.23-29.86Zm-18.027 61.07c-9.202 9.92-12.1 21.88-12.598 35.242.49 12.611 3.145 26.77 12.375 36 6.467 4.948 12.705 7.359 20.875 6.938 7.17-.96 13.592-3.862 18.5-9.25 10.123-13.317 11.3-30.307 9.121-46.41-1.39-6.797-3.614-12.53-7.496-18.278l-2.188-3.25c-5.052-4.94-11.605-8.33-18.742-8.82-7.957.27-14.093 2.137-19.847 7.828ZM804.625 331.688l3.716.017c23.464.311 44.974 5.745 62.6 22.147C880.415 363.739 888.24 378.059 888 392c-7.736.186-15.472.328-23.21.414-3.593.042-7.185.099-10.778.19-3.47.087-6.937.134-10.407.155a281.68 281.68 0 0 0-5.89.147c-8.754.005-8.754.005-11.56-2.655-1.314-2.147-1.314-2.147-2.24-4.29-1.473-3.158-3.925-4.37-6.915-5.961-3.592-1.192-7.11-1.201-10.875-1.25l-3.617-.078c-3.874.362-6.22 1.277-9.508 3.328-2.127 3.19-2.334 5.202-2.559 8.965.892 3.247 2.792 4.181 5.559 6.035 2.897 1.062 5.851 1.731 8.86 2.402l2.613.62c2.757.651 5.516 1.284 8.277 1.916 20.91 4.853 20.91 4.853 30.621 7.683l2.023.584c14.35 4.29 27.042 12.082 35.168 24.92 7.447 13.798 8.891 30.999 4.477 46.035-6.3 17.22-17.264 27.294-33.476 35.152-27.942 12.066-60.778 11.576-89.223 1.375-8.011-3.207-14.636-7.284-21.34-12.687l-1.988-1.492C730.896 494.783 724.706 480.574 722 467v-4h64l4 8c4.81 5.085 11.618 7.11 18.5 7.375 5.617-.217 11.153-1.455 15.563-5.063 1.414-3.49 1.722-6.614.937-10.312-5.33-6.36-15.801-7.531-23.574-9.086l-5.463-1.133c-2.818-.578-5.637-1.153-8.457-1.723-19.485-3.956-40.832-8.421-53.295-25.511-8.687-13.95-10.837-30.473-7.527-46.602 4.745-16.422 15.541-28.226 30.164-36.57 15.13-7.974 30.807-10.77 47.777-10.688ZM929 285h64v51h39v51h-39c.091 11.155.091 11.155.209 22.31.054 4.556.105 9.112.137 13.667.027 3.677.067 7.353.117 11.03.017 1.396.028 2.792.035 4.189.038 7.835.433 14.552 3.502 21.804l1 3c2.376 1.184 2.376 1.184 5 2l3 1c2.515.15 4.984.231 7.5.25l1.992.063c6.581.05 10.642-1.44 17.508-3.313v56c-23.554 7.247-51.385 8.686-74.438-1.625-13.767-7.6-20.8-18.422-26.484-32.613-3.381-11.798-3.348-23.6-3.273-35.75l.008-5.393c.008-4.687.027-9.373.05-14.06.02-4.8.03-9.6.04-14.4.02-9.387.056-18.773.097-28.159h-27v-51h27v-51ZM1419 285h64v51h39v51h-39c.089 8.069.18 16.137.287 24.206.05 3.758.097 7.516.135 11.274.037 3.625.083 7.25.136 10.874.018 1.377.034 2.755.045 4.133-.23 12.628-.23 12.628 4.71 23.888 4.643 4.535 9.011 4.968 15.312 4.938l3.977.05c5.582-.326 5.582-.326 15.398-3.363v56c-12.643 3.89-21.698 5.2-34.563 5.25-1.922.03-1.922.03-3.884.063-17.79.071-35.507-4.188-48.897-16.461-12.466-12.84-16.856-30.568-16.77-48.082v-2.397c0-2.592.008-5.184.016-7.775l.005-5.418c.003-4.737.013-9.473.024-14.21.01-4.84.015-9.679.02-14.519.01-9.484.028-18.967.049-28.451h-27v-51h27v-51ZM1361.25 331.75l2.45-.063 2.44-.015 2.173-.028c4.018.533 7.842 2.074 11.687 3.356v63l-9-3c-13.68-3.56-28.193-3.662-40.96 3.027-5.145 3.669-8.433 10.528-9.507 16.626-.182 2.84-.217 5.642-.192 8.488l-.032 3.226c-.029 3.485-.023 6.969-.016 10.453-.013 2.43-.028 4.86-.046 7.289-.04 6.369-.05 12.737-.054 19.106-.01 7.655-.059 15.31-.1 22.965-.06 11.607-.072 23.213-.093 34.82h-65V336h65l1 14 2.313-3.063c6.141-7.14 14.603-11.709 23.687-13.937l2.18-.555c4.027-.636 7.998-.67 12.07-.695ZM741 169c7.438 5.46 10.914 12.29 12.375 21.316.409 7.143-1.96 14.424-6.196 20.143-2.208 2.44-4.495 4.75-6.855 7.041l-2.555 2.554a801.421 801.421 0 0 1-5.349 5.274 919.45 919.45 0 0 0-8.137 8.082c-1.734 1.72-3.47 3.437-5.209 5.153l-2.437 2.433c-6.68 6.485-12.44 9.518-21.824 10.254-8.643-.567-14.615-3.03-20.899-9.059-5.31-6.08-7.255-12.804-7.125-20.761.986-11.361 8.57-19.097 16.262-26.817l1.994-2.015c1.384-1.393 2.77-2.783 4.158-4.171 2.104-2.11 4.192-4.233 6.28-6.359 1.355-1.36 2.71-2.72 4.068-4.08l1.857-1.9c11.02-10.908 25.46-15.361 39.592-7.088ZM695.125 625.688l2.633-.114c9.558 1.255 15.78 6.053 22.39 12.742l2.485 2.46c1.72 1.712 3.432 3.43 5.137 5.157a764.917 764.917 0 0 0 7.859 7.788c1.675 1.675 3.348 3.353 5.02 5.033l2.36 2.309c6.253 6.414 9.839 13.404 10.491 22.437-.364 7.221-3.13 15.554-8.5 20.5-8.513 5.794-14.694 7.774-25 7-9.547-1.987-16.748-9.436-23.422-16.086l-2.022-2.002a1585.852 1585.852 0 0 1-4.184-4.17c-2.12-2.115-4.255-4.214-6.392-6.312a3946.37 3946.37 0 0 1-4.09-4.078l-1.916-1.873c-6.42-6.487-10.08-13.373-10.287-22.604.07-7.853 2.186-12.716 6.5-19.125 5.961-5.828 12.637-8.833 20.938-9.063ZM234.75 165.563l3.422-.122c9.334 1.362 15.913 6.901 22.32 13.457l2.283 2.283a890.57 890.57 0 0 1 4.713 4.765c2.388 2.43 4.796 4.837 7.207 7.242a3925.09 3925.09 0 0 1 4.61 4.648l2.162 2.163c8.056 8.248 10.972 15.05 10.88 26.603-.768 7.513-4.573 13.61-10.347 18.398-6.37 4.954-12.967 6.705-21 6-9.755-2.345-15.923-7.61-22.883-14.547l-2.232-2.212a1946.77 1946.77 0 0 1-4.644-4.63c-2.355-2.35-4.725-4.684-7.096-7.017-1.51-1.504-3.02-3.01-4.528-4.516l-2.134-2.09c-6.268-6.327-10.534-13.066-10.733-22.175.142-8.643 3.39-15.525 9.25-21.813 5.797-4.59 11.4-6.296 18.75-6.438ZM278 629c7.352 5.052 11.51 10.584 13.523 19.254 1.438 9.182-1.185 16.362-6.523 23.746-2.422 2.824-5.01 5.454-7.645 8.078l-2.207 2.224a1340.49 1340.49 0 0 1-4.612 4.608 1154.83 1154.83 0 0 0-6.991 7.043c-1.5 1.501-3 3.001-4.502 4.5l-2.081 2.115c-6.503 6.411-13.28 10.516-22.587 10.745-8.88-.107-15.232-3.276-21.645-9.356-5.833-6.597-6.202-13.444-6.359-22.016 1.495-9.37 6.89-15.954 13.492-22.433l2.275-2.283a876.837 876.837 0 0 1 4.753-4.713 910.647 910.647 0 0 0 7.209-7.207c1.544-1.538 3.09-3.075 4.638-4.61l2.148-2.162c10.157-9.923 23.741-14.5 37.114-7.533ZM497 68c6.622 6.221 10.051 12.555 10.404 21.707.026 2.178.035 4.357.03 6.535l.015 3.526c.007 2.453.006 4.905-.003 7.357-.008 3.731.02 7.46.052 11.191.002 2.392.001 4.784-.002 7.176l.034 3.347c-.077 8.624-1.956 15.264-6.717 22.474-6.688 6.39-13.88 9.105-23.028 8.957-7.984-.773-14.682-3.797-19.998-9.856-5.646-7.627-6.381-16.356-6.283-25.547l-.005-3.386c.002-2.344.014-4.689.034-7.033.03-3.57.021-7.14.008-10.71.006-2.29.015-4.58.025-6.87l-.008-3.202c.127-10.092 2.172-17.322 9.192-24.717C470.937 60.124 486.304 60.03 497 68ZM131.344 407.823l3.238-.039 3.488-.022 3.61-.025a3203.9 3203.9 0 0 1 7.571-.032c3.839-.017 7.676-.061 11.515-.105 2.455-.01 4.911-.019 7.367-.026l3.451-.053c8.95.024 16.473 1.582 23.291 7.666 6.41 7.183 7.76 13.972 7.441 23.508-.72 7.516-3.518 13.35-9.316 18.305-6.1 3.73-11.708 6.103-18.885 6.161l-2.935.03-3.157.012-3.274.017c-2.288.01-4.576.016-6.864.02-3.476.01-6.952.04-10.428.072-2.228.007-4.456.012-6.684.016l-3.12.038c-8.569-.027-17.104-1.31-24.051-6.71-6.974-7.211-8.986-14.839-8.88-24.554.683-7.63 4.687-13.989 10.278-19.102 5.28-3.768 9.943-5.11 16.344-5.177ZM495 720c6.354 4.196 10.467 10.53 12 18 .104 1.749.158 3.5.177 5.252l.039 3.178.022 3.422.025 3.543c.014 2.476.024 4.952.032 7.429.017 3.766.061 7.531.105 11.297.01 2.41.019 4.82.026 7.23l.053 3.385c-.025 8.884-1.629 16.378-7.666 23.139-7.344 6.54-14.394 7.87-24.153 7.566-8.288-1-13.75-4.842-19.187-10.988-4.439-7.393-4.93-14.867-4.907-23.32l-.015-3.38c-.007-2.348-.006-4.696.003-7.045.008-3.566-.02-7.13-.052-10.696-.002-2.293-.001-4.586.002-6.88l-.034-3.188c.085-9.187 1.92-17.347 8.092-24.381C469.9 714.221 483.05 713.702 495 720Z"/></svg>
